{"title":"SINGHAM RETURNS (2014) 720p BluRay x264 [DD 5.1CH][PGS][SumoMan]","uid":11176310,"size":3001106039,"categoryP":"video","categoryS":"hd___movies","magnet":"?xt=urn:btih:ca6b1a0bed1bcbf89c495adda6c05ce3c4f20cb7&amp;dn=SINGHAM+RETURNS+%282014%29+720p+BluRay+x264+%5BDD+5.1CH%5D%5BPGS%5D%5BSumoMan%5D&amp;tr=udp%3A%2F%2Ftracker.openbittorrent.com%3A80&amp;tr=udp%3A%2F%2Fopen.demonii.com%3A1337&amp;tr=udp%3A%2F%2Ftracker.coppersurfer.tk%3A6969&amp;tr=udp%3A%2F%2Fexodus.desync.com%3A6969","seeders":0,"leechers":2,"uploader":"inovai","files":3,"time":1412795166,"description":"SINGHAM RETURNS (2014) 720p BluRay x264 [DD 5.1CH][PGS][SumoMan]\n\nCover:\n  &lt;a href=&quot;\nhttp://forum.primetimeshow.in/viewtopic.php?f=7&amp;t=586&quot; rel=&quot;nofollow&quot; target=&quot;_NEW&quot;&gt;\nhttp://forum.primetimeshow.in/viewtopic.php?f=7&amp;t=586&lt;/a&gt;\n\nScreenshots:\n &lt;a href=&quot;\nhttp://m.primetimeshow.in/share-D3CC_54356E99.html&quot; rel=&quot;nofollow&quot; target=&quot;_NEW&quot;&gt;\nhttp://m.primetimeshow.in/share-D3CC_54356E99.html&lt;/a&gt;\n &lt;a href=&quot;\nhttp://m.primetimeshow.in/share-4277_54356E99.html&quot; rel=&quot;nofollow&quot; target=&quot;_NEW&quot;&gt;\nhttp://m.primetimeshow.in/share-4277_54356E99.html&lt;/a&gt;\n &lt;a href=&quot;\nhttp://m.primetimeshow.in/share-2016_54356E99.html&quot; rel=&quot;nofollow&quot; target=&quot;_NEW&quot;&gt;\nhttp://m.primetimeshow.in/share-2016_54356E99.html&lt;/a&gt;\n &lt;a href=&quot;\nhttp://m.primetimeshow.in/share-D4C6_54356E99.html&quot; rel=&quot;nofollow&quot; target=&quot;_NEW&quot;&gt;\nhttp://m.primetimeshow.in/share-D4C6_54356E99.html&lt;/a&gt;\n  &lt;a href=&quot;\nhttp://m.primetimeshow.in/share-E1EF_54355E88.html&quot; rel=&quot;nofollow&quot; target=&quot;_NEW&quot;&gt;\nhttp://m.primetimeshow.in/share-E1EF_54355E88.html&lt;/a&gt;\n  &lt;a href=&quot;\nhttp://m.primetimeshow.in/share-63BA_54355E88.html&quot; rel=&quot;nofollow&quot; target=&quot;_NEW&quot;&gt;\nhttp://m.primetimeshow.in/share-63BA_54355E88.html&lt;/a&gt;\n  &lt;a href=&quot;\nhttp://m.primetimeshow.in/share-0CDE_54355E88.html&quot; rel=&quot;nofollow&quot; target=&quot;_NEW&quot;&gt;\nhttp://m.primetimeshow.in/share-0CDE_54355E88.html&lt;/a&gt;\n  &lt;a href=&quot;\nhttp://m.primetimeshow.in/share-6E9E_54355E88.html&quot; rel=&quot;nofollow&quot; target=&quot;_NEW&quot;&gt;\nhttp://m.primetimeshow.in/share-6E9E_54355E88.html&lt;/a&gt;\n  &lt;a href=&quot;\nhttp://m.primetimeshow.in/share-24DE_54355E88.html&quot; rel=&quot;nofollow&quot; target=&quot;_NEW&quot;&gt;\nhttp://m.primetimeshow.in/share-24DE_54355E88.html&lt;/a&gt;\n\nFormat : Matroska\nFormat version : Version 4 / Version 2\nFile size : 2.76 GiB\nDuration : 2h 19mn\nOverall bit rate : 2 843 Kbps\nMovie name : SINGHAM RETURNS (2014) 720p BluRay x264 [DD 5.1CH][PGS][SumoMan]\n\nVideo\nID : 1\nFormat : AVC\nFormat/Info : Advanced Video Codec\nFormat profile : &lt;a class=&quot;__cf_email__&quot; href=&quot;/cdn-cgi/l/email-protection&quot; data-cfemail=&quot;7038191718303c435e41&quot;&gt;[email&amp;#160;protected]&lt;/a&gt;&lt;script cf-hash='f9e31' type=&quot;text/javascript&quot;&gt;\n/* &lt;![CDATA[ */!function(){try{var t=&quot;currentScript&quot;in document?document.currentScript:function(){for(var t=document.getElementsByTagName(&quot;script&quot;),e=t.length;e--;)if(t[e].getAttribute(&quot;cf-hash&quot;))return t[e]}();if(t&amp;&amp;t.previousSibling){var e,r,n,i,c=t.previousSibling,a=c.getAttribute(&quot;data-cfemail&quot;);if(a){for(e=&quot;&quot;,r=parseInt(a.substr(0,2),16),n=2;a.length-n;n+=2)i=parseInt(a.substr(n,2),16)^r,e+=String.fromCharCode(i);e=document.createTextNode(e),c.parentNode.replaceChild(e,c)}}}catch(u){}}();/* ]]&gt; */&lt;/script&gt;\nFormat settings, CABAC : Yes\nFormat settings, ReFrames : 4 frames\nCodec ID : V_MPEG4/ISO/AVC\nDuration : 2h 19mn\nBit rate : 2 402 Kbps\nWidth : 1 280 pixels\nHeight : 544 pixels\nDisplay aspect ratio : 2.35:1\nFrame rate mode : Constant\nFrame rate : 23.976 fps\nColor space : YUV\nChroma subsampling : 4:2:0\nBit depth : 8 bits\nScan type : Progressive\nBits/(Pixel*Frame) : 0.144\nStream size : 2.34 GiB (85%)\nTitle : SINGHAM RETURNS (2014) 720p BluRay x264 [DD 5.1CH][PGS][SumoMan]\nWriting library : x264 : No\n\nAudio\nID : 3\nFormat : AC-3\nFormat/Info : Audio Coding 3\nMode extension : CM (complete main)\nFormat settings, Endianness : Big\nCodec ID : A_AC3\nDuration : 2h 19mn\nBit rate mode : Constant\nBit rate : 384 Kbps\nChannel(s) : 6 channels\nChannel positions : Front: L C R, Side: L R, LFE\nSampling rate : 44.1 KHz\nBit depth : 16 bits\nCompression mode : Lossy\nStream size : 382 MiB (14%)\nTitle : Hindi\nLanguage : Hindi\nDefault : Yes\nForced : No\n\nText\nID : 2\nFormat : PGS\nMuxing mode : zlib\nCodec ID : S_HDMV/PGS\nCodec ID/Info : The same subtitle format used on BDs/HD-DVDs\nLanguage : English\nDefault : Yes\nForced : No\n\nMenu\n00:00:00.000 : en:00:00:00.000\n00:02:15.552 : en:00:02:15.552\n00:06:48.408 : en:00:06:48.408\n00:10:59.659 : en:00:10:59.659\n00:16:39.081 : en:00:16:39.081\n00:30:19.484 : en:00:30:19.484\n00:44:14.277 : en:00:44:14.277\n00:51:07.898 : en:00:51:07.898\n00:57:44.002 : en:00:57:44.002\n01:06:52.383 : en:01:06:52.383\n01:09:57.985 : en:01:09:57.985\n01:20:56.018 : en:01:20:56.018\n01:27:19.401 : en:01:27:19.401\n01:33:12.337 : en:01:33:12.337\n01:41:22.076 : en:01:41:22.076\n01:44:54.705 : en:01:44:54.705\n01:47:45.084 : en:01:47:45.084\n01:58:18.591 : en:01:58:18.591\n02:01:47.759 : en:02:01:47.759\n02:15:55.898 : en:02:15:55.898\n\nSource : Team Telly BD 50 GB!!\n\nThanks to SumoMan!!\n\nSeed n ENjoy!!","torrent":{"xt":"urn:btih:ca6b1a0bed1bcbf89c495adda6c05ce3c4f20cb7","amp;dn":"SINGHAM+RETURNS+%282014%29+720p+BluRay+x264+%5BDD+5.1CH%5D%5BPGS%5D%5BSumoMan%5D","amp;tr":["udp%3A%2F%2Ftracker.openbittorrent.com%3A80","udp%3A%2F%2Fopen.demonii.com%3A1337","udp%3A%2F%2Ftracker.coppersurfer.tk%3A6969","udp%3A%2F%2Fexodus.desync.com%3A6969"],"infoHash":"ca6b1a0bed1bcbf89c495adda6c05ce3c4f20cb7","infoHashBuffer":{"type":"Buffer","data":[202,107,26,11,237,27,203,248,156,73,90,221,166,192,92,227,196,242,12,183]},"announce":[],"urlList":[]}}